<svg width="117" height="38" viewBox="0 0 117 38" fill="none" xmlns="http://www.w3.org/2000/svg">
<path d="M30 0H10C4.47715 0 0 4.47715 0 10V27.7953C0 33.3181 4.47715 37.7953 10 37.7953H30C35.5228 37.7953 40 33.3181 40 27.7953V10C40 4.47715 35.5228 0 30 0Z" fill="#6979F8"/>
<path fill-rule="evenodd" clip-rule="evenodd" d="M21.7145 9.77634C21.2721 7.72511 18.3426 7.72511 17.9002 9.77634C17.6014 11.162 15.9667 11.7741 14.8333 10.9228L14.5368 10.7C12.9139 9.48109 10.7896 11.3686 11.8002 13.1288C12.5024 14.3515 11.6124 15.8835 10.2028 15.9189C8.18255 15.9694 7.61835 18.7726 9.51208 19.4781C10.8323 19.9699 11.1292 21.7043 10.0486 22.6082C8.50394 23.9003 9.85956 26.3797 11.7799 25.7732L12.0883 25.6758C13.4359 25.2502 14.7602 26.3939 14.5399 27.7899C14.2184 29.8274 16.9055 30.8679 18.0284 29.1377L18.1612 28.9331C18.9349 27.7409 20.6799 27.7409 21.4536 28.9331L21.5864 29.1377C22.7093 30.8679 25.3964 29.8274 25.0748 27.7899C24.8545 26.3939 26.1788 25.2502 27.5265 25.6758L27.8349 25.7732C29.7552 26.3797 31.1108 23.9003 29.5662 22.6082C28.4856 21.7043 28.7825 19.9699 30.1027 19.4781C31.9964 18.7726 31.4322 15.9694 29.412 15.9189C28.0024 15.8835 27.1124 14.3515 27.8145 13.1288C28.8252 11.3686 26.7009 9.48109 25.078 10.7L24.7814 10.9228C23.648 11.7741 22.0134 11.162 21.7145 9.77634ZM19.8074 23.6107C22.2927 23.6107 24.3074 21.7071 24.3074 19.3588C24.3074 17.0105 22.2927 15.1068 19.8074 15.1068C17.3221 15.1068 15.3074 17.0105 15.3074 19.3588C15.3074 21.7071 17.3221 23.6107 19.8074 23.6107Z" fill="white"/>
<path d="M50.7188 19.3096C50.7188 17.2992 51.2578 15.7497 52.3359 14.6611C53.2734 13.7132 54.4661 13.2393 55.9141 13.2393C57.8516 13.2393 59.2682 13.8747 60.1641 15.1455C60.6589 15.859 60.9245 16.5752 60.9609 17.2939H58.5547C58.3984 16.7419 58.1979 16.3252 57.9531 16.0439C57.5156 15.5439 56.8672 15.2939 56.0078 15.2939C55.1328 15.2939 54.4427 15.6481 53.9375 16.3564C53.4323 17.0596 53.1797 18.057 53.1797 19.3486C53.1797 20.6403 53.4453 21.609 53.9766 22.2549C54.513 22.8955 55.1927 23.2158 56.0156 23.2158C56.8594 23.2158 57.5026 22.9398 57.9453 22.3877C58.1901 22.0908 58.3932 21.6455 58.5547 21.0518H60.9375C60.7292 22.307 60.1953 23.3278 59.3359 24.1143C58.4818 24.9007 57.3854 25.2939 56.0469 25.2939C54.3906 25.2939 53.0885 24.7627 52.1406 23.7002C51.1927 22.6325 50.7188 21.1689 50.7188 19.3096ZM66.4219 23.4033C67.0729 23.4033 67.5729 23.1715 67.9219 22.708C68.2708 22.2445 68.4453 21.5856 68.4453 20.7314C68.4453 19.8773 68.2708 19.221 67.9219 18.7627C67.5729 18.2992 67.0729 18.0674 66.4219 18.0674C65.7708 18.0674 65.2682 18.2992 64.9141 18.7627C64.5651 19.221 64.3906 19.8773 64.3906 20.7314C64.3906 21.5856 64.5651 22.2445 64.9141 22.708C65.2682 23.1715 65.7708 23.4033 66.4219 23.4033ZM70.7812 20.7314C70.7812 21.9814 70.4219 23.0518 69.7031 23.9424C68.9844 24.8278 67.8932 25.2705 66.4297 25.2705C64.9661 25.2705 63.875 24.8278 63.1562 23.9424C62.4375 23.0518 62.0781 21.9814 62.0781 20.7314C62.0781 19.5023 62.4375 18.4372 63.1562 17.5361C63.875 16.6351 64.9661 16.1846 66.4297 16.1846C67.8932 16.1846 68.9844 16.6351 69.7031 17.5361C70.4219 18.4372 70.7812 19.5023 70.7812 20.7314ZM71.7109 19.458H76.1953V21.5674H71.7109V19.458ZM85.5234 13.458H88.9844V24.9736H86.7422V17.1846C86.7422 16.9606 86.7448 16.6481 86.75 16.2471C86.7552 15.8408 86.7578 15.5283 86.7578 15.3096L84.5781 24.9736H82.2422L80.0781 15.3096C80.0781 15.5283 80.0807 15.8408 80.0859 16.2471C80.0911 16.6481 80.0938 16.9606 80.0938 17.1846V24.9736H77.8516V13.458H81.3516L83.4453 22.5127L85.5234 13.458ZM95.7344 20.833C95.5938 20.9215 95.4505 20.9945 95.3047 21.0518C95.1641 21.1038 94.9688 21.1533 94.7188 21.2002L94.2188 21.2939C93.75 21.3773 93.4141 21.4788 93.2109 21.5986C92.8672 21.8018 92.6953 22.1169 92.6953 22.5439C92.6953 22.9242 92.7995 23.2002 93.0078 23.3721C93.2214 23.5387 93.4792 23.6221 93.7812 23.6221C94.2604 23.6221 94.7005 23.4814 95.1016 23.2002C95.5078 22.9189 95.7188 22.4059 95.7344 21.6611V20.833ZM94.3828 19.7939C94.7943 19.7419 95.0885 19.6768 95.2656 19.5986C95.5833 19.4632 95.7422 19.2523 95.7422 18.9658C95.7422 18.6169 95.6198 18.3773 95.375 18.2471C95.1354 18.1117 94.7812 18.0439 94.3125 18.0439C93.7865 18.0439 93.4141 18.1742 93.1953 18.4346C93.0391 18.6273 92.9349 18.8877 92.8828 19.2158H90.7344C90.7812 18.471 90.9896 17.859 91.3594 17.3799C91.9479 16.6299 92.9583 16.2549 94.3906 16.2549C95.3229 16.2549 96.151 16.4398 96.875 16.8096C97.599 17.1794 97.9609 17.8773 97.9609 18.9033V22.8096C97.9609 23.0804 97.9661 23.4085 97.9766 23.7939C97.9922 24.0856 98.0365 24.2835 98.1094 24.3877C98.1823 24.4919 98.2917 24.5778 98.4375 24.6455V24.9736H96.0156C95.9479 24.8018 95.901 24.6403 95.875 24.4893C95.849 24.3382 95.8281 24.1663 95.8125 23.9736C95.5052 24.307 95.151 24.5908 94.75 24.8252C94.2708 25.1012 93.7292 25.2393 93.125 25.2393C92.3542 25.2393 91.7161 25.0205 91.2109 24.583C90.7109 24.1403 90.4609 23.5153 90.4609 22.708C90.4609 21.6611 90.8646 20.9033 91.6719 20.4346C92.1146 20.1794 92.7656 19.9971 93.625 19.8877L94.3828 19.7939ZM99.9219 13.4971H102.109V19.7002L104.883 16.4971H107.641L104.664 19.7549L107.758 24.9736H105.07L103.031 21.333L102.109 22.2939V24.9736H99.9219V13.4971ZM112.211 18.0674C111.695 18.0674 111.294 18.2288 111.008 18.5518C110.727 18.8747 110.549 19.3122 110.477 19.8643H113.938C113.901 19.2757 113.721 18.8304 113.398 18.5283C113.081 18.221 112.685 18.0674 112.211 18.0674ZM112.211 16.2314C112.919 16.2314 113.557 16.3643 114.125 16.6299C114.693 16.8955 115.161 17.3148 115.531 17.8877C115.865 18.3929 116.081 18.9788 116.18 19.6455C116.237 20.0361 116.26 20.5986 116.25 21.333H110.422C110.453 22.1872 110.721 22.7861 111.227 23.1299C111.534 23.3434 111.904 23.4502 112.336 23.4502C112.794 23.4502 113.167 23.32 113.453 23.0596C113.609 22.9189 113.747 22.7236 113.867 22.4736H116.141C116.083 22.9788 115.82 23.4919 115.352 24.0127C114.622 24.8408 113.602 25.2549 112.289 25.2549C111.206 25.2549 110.25 24.9059 109.422 24.208C108.594 23.5101 108.18 22.3747 108.18 20.8018C108.18 19.3278 108.552 18.1976 109.297 17.4111C110.047 16.6247 111.018 16.2314 112.211 16.2314Z" fill="white"/>
</svg>
